<?xml version="1.0" standalone="no"?>
<!DOCTYPE svg PUBLIC "-//W3C//DTD SVG 20010904//EN"
 "http://www.w3.org/TR/2001/REC-SVG-20010904/DTD/svg10.dtd">
<svg version="1.0" xmlns="http://www.w3.org/2000/svg"
 width="1904.000000pt" height="1080.000000pt" viewBox="0 0 1904.000000 1080.000000"
 preserveAspectRatio="xMidYMid meet">
<metadata>
Created by potrace 1.15, written by Peter Selinger 2001-2017
</metadata>
<g transform="translate(0.000000,1080.000000) scale(0.100000,-0.100000)"
fill="#000000" stroke="none">
<path d="M0 5400 l0 -5400 9520 0 9520 0 0 5400 0 5400 -9520 0 -9520 0 0
-5400z m10385 2467 c-44 -46 -73 -122 -60 -154 6 -15 10 -11 17 17 18 67 52
122 92 149 35 23 49 26 121 25 60 -1 88 -5 108 -19 15 -10 25 -20 23 -23 -3
-2 7 -25 21 -49 22 -38 27 -61 31 -142 5 -114 -7 -168 -50 -217 -107 -122
-291 -80 -335 78 -17 61 -33 76 -33 31 1 -40 35 -110 71 -144 33 -31 23 -38
-28 -18 -38 14 -71 46 -94 91 -15 30 -19 59 -19 154 0 134 10 166 72 219 36
30 54 39 94 44 6 0 -8 -18 -31 -42z m-2085 -637 l0 -270 -140 0 -140 0 0 25
c0 34 -33 65 -69 65 -34 0 -75 -44 -68 -72 5 -17 -5 -18 -119 -18 l-124 0 -2
138 c-2 165 3 384 9 395 2 4 150 7 329 7 l324 0 0 -270z m3502 -296 c17 -5 18
-33 18 -470 l0 -464 -55 0 -55 0 0 420 0 420 -2185 0 -2185 0 0 -826 c0 -783
-1 -826 -17 -819 -10 4 -35 9 -55 12 l-38 6 0 858 c0 473 1 860 3 861 3 4
3710 13 4152 10 220 -1 407 -5 417 -8z m308 -79 c7 -8 13 -26 13 -40 0 -50
-15 -55 -154 -55 l-129 0 0 55 0 55 129 0 c102 0 131 -3 141 -15z m120 -355
l0 -250 -195 0 -195 0 0 36 c0 37 6 38 43 6 16 -14 20 -13 45 11 26 25 34 27
124 27 91 0 96 1 102 23 10 38 7 297 -4 318 -10 17 -23 19 -160 19 -127 0
-150 2 -150 15 0 13 21 15 128 15 97 0 133 4 148 15 10 8 40 15 67 15 l47 0 0
-250z m-2915 195 l0 -40 -197 -3 -198 -2 0 45 0 45 198 -2 197 -3 0 -40z
m-1671 -47 c11 -15 16 -45 16 -93 0 -106 -9 -115 -120 -115 -111 0 -120 9
-120 115 0 106 9 115 120 115 80 0 90 -2 104 -22z m4481 -138 l0 -145 -142 -3
-143 -3 0 151 0 151 143 -3 142 -3 0 -145z m-5910 -174 c28 -13 59 -33 69 -45
11 -11 25 -21 31 -21 14 0 50 -49 42 -56 -3 -3 2 -26 9 -51 19 -62 19 -61 -23
-69 -116 -21 -192 -113 -193 -233 l0 -53 -67 4 c-79 5 -124 24 -177 75 -62 61
-81 106 -81 198 0 90 18 134 77 194 79 81 212 105 313 57z m6071 -247 c191
-35 340 -190 351 -367 4 -62 -1 -81 -61 -256 -36 -104 -68 -191 -70 -193 -2
-2 -19 6 -38 19 -18 13 -54 32 -78 42 -25 11 -46 21 -48 22 -2 1 18 62 44 136
40 113 47 144 47 208 0 64 -4 85 -31 141 -57 119 -139 173 -291 193 -82 11
-92 15 -71 23 14 6 26 7 28 2 2 -5 17 -9 34 -9 25 0 29 3 25 19 -4 15 1 21 22
24 50 8 78 7 137 -4z m-5971 -62 c-44 -46 -73 -122 -60 -154 6 -15 10 -11 17
17 18 67 52 122 92 149 35 23 49 26 121 25 60 -1 88 -5 108 -19 15 -10 25 -20
23 -23 -3 -2 7 -25 21 -49 22 -38 27 -61 31 -142 5 -114 -7 -168 -50 -217
-107 -122 -291 -80 -335 78 -17 61 -33 76 -33 31 1 -40 35 -110 71 -144 33
-31 23 -38 -28 -18 -38 14 -71 46 -94 91 -15 30 -19 59 -19 154 0 134 10 166
72 219 36 30 54 39 94 44 6 0 -8 -18 -31 -42z m5933 -58 c42 -16 102 -79 128
-134 l24 -50 -1140 -3 -1140 -2 0 -1110 0 -1110 1800 0 1800 0 0 1110 0 1110
-531 2 -530 3 -23 58 c-13 31 -36 73 -50 92 -14 18 -26 36 -26 39 0 11 1203 6
1242 -4 20 -6 46 -22 58 -37 19 -24 20 -39 20 -224 0 -121 4 -200 10 -204 6
-3 10 -30 10 -60 0 -30 -4 -57 -10 -60 -6 -4 -10 -117 -10 -305 0 -188 4 -301
10 -305 6 -3 10 -48 10 -100 0 -52 -4 -97 -10 -100 -6 -4 -10 -205 -10 -570
l0 -563 -1955 0 -1955 0 0 1233 c0 1230 0 1232 21 1259 11 14 35 30 52 35 46
13 2169 13 2205 0z m-1410 -306 l-3 -38 -135 0 -135 0 -3 38 -3 37 141 0 141
0 -3 -37z m242 -3 l0 -40 -95 0 -95 0 0 40 0 40 95 0 95 0 0 -40z m1330 23 c0
-10 -3 -28 -6 -41 l-6 -22 -427 2 -426 3 -3 38 -3 37 435 0 c409 0 436 -1 436
-17z m-725 -228 c36 -35 35 -96 -1 -124 -46 -36 -106 -24 -132 26 -18 33 -14
59 14 92 33 40 83 43 119 6z m605 0 l0 -25 -244 0 c-246 0 -265 3 -252 35 4
13 45 15 251 15 l245 0 0 -25z m-4691 -90 c30 -15 61 -69 61 -105 0 -29 -26
-76 -52 -94 -13 -9 -43 -16 -71 -16 -40 0 -54 5 -77 28 -75 76 -27 200 78 202
18 0 46 -7 61 -15z m4794 -68 c121 -60 187 -159 187 -282 0 -55 -49 -205 -99
-302 -57 -112 -196 -183 -316 -162 -192 35 -314 172 -302 339 6 92 86 289 141
348 68 74 138 102 242 99 59 -2 83 -8 147 -40z m-1293 -7 l0 -30 -267 2 -268
3 -3 28 -3 27 270 0 271 0 0 -30z m-716 -16 c12 -11 16 -35 16 -86 0 -97 -11
-108 -106 -108 -96 0 -104 8 -104 105 0 54 4 78 16 89 11 12 35 16 89 16 54 0
78 -4 89 -16z m-4217 -55 c14 -5 24 -20 28 -41 3 -18 4 -459 3 -980 -2 -761
-6 -950 -16 -960 -19 -19 -985 -19 -1004 0 -20 20 -24 1940 -4 1967 14 19 32
20 383 25 391 6 574 2 610 -11z m1150 -52 c66 -36 63 15 63 -959 0 -986 4
-931 -70 -970 -32 -17 -66 -18 -436 -18 -400 0 -401 0 -435 23 -19 12 -42 39
-52 60 -18 35 -19 83 -18 893 1 533 5 871 11 893 12 45 48 81 92 91 18 5 209
8 423 7 352 -2 393 -4 422 -20z m4368 -102 c52 -52 19 -145 -51 -145 -46 0
-63 9 -79 41 -22 42 -18 67 14 100 38 37 82 39 116 4z m-1319 -79 c38 -38 44
-77 19 -126 -19 -37 -43 -50 -95 -50 -59 0 -100 42 -100 100 0 58 50 110 105
110 29 0 45 -8 71 -34z m1466 -143 c7 -125 81 -227 206 -286 57 -27 81 -33
159 -35 82 -4 98 -1 151 23 102 46 165 131 228 313 l19 52 157 0 158 0 0 -300
0 -300 -557 2 -558 3 -3 298 c-2 286 -2 297 17 297 16 0 19 -9 23 -67z m-734
15 l-3 -33 -245 -3 c-135 -1 -255 0 -267 3 -22 5 -32 42 -16 58 3 4 125 7 270
7 l264 0 -3 -32z m-238 -148 l0 -31 -147 3 -148 3 -3 28 -3 27 150 0 151 0 0
-30z m-2881 -75 c16 -8 34 -29 41 -47 8 -18 24 -43 37 -55 28 -27 29 -37 2
-64 -13 -13 -26 -18 -37 -13 -19 8 -29 7 -84 -2 -34 -5 -42 -2 -73 29 -24 24
-35 44 -35 64 1 79 78 125 149 88z m509 -39 c2 -10 -2 -22 -10 -27 -15 -10
-308 -12 -332 -3 -16 6 -22 35 -9 48 4 3 84 5 177 4 158 -3 171 -4 174 -22z
m1452 -286 l0 -50 -1267 2 -1268 3 -3 33 c-2 19 -1 40 2 48 5 12 193 14 1271
14 l1265 0 0 -50z m-4852 24 l52 -7 0 -68 0 -69 -94 0 c-79 0 -97 3 -120 21
-30 24 -35 69 -10 90 46 38 76 44 172 33z m4752 -424 l0 -330 -315 0 -315 0 0
330 0 330 315 0 315 0 0 -330z m-4700 51 l0 -210 -57 27 c-67 31 -173 41 -212
20 -13 -7 -37 -37 -54 -67 -26 -46 -30 -64 -30 -125 0 -157 102 -258 276 -272
l77 -7 0 -33 c0 -18 3 -40 6 -49 6 -15 -3 -17 -92 -13 -123 4 -189 32 -267
110 -63 64 -92 122 -106 206 -26 163 54 314 214 400 84 45 112 82 121 163 l7
59 58 0 59 0 0 -209z m6544 128 c57 -45 19 -149 -54 -149 -37 0 -90 47 -90 80
0 76 84 116 144 69z m746 -4 l0 -25 -314 0 c-209 0 -317 4 -321 10 -4 6 -4 17
-1 25 5 13 54 15 321 15 l315 0 0 -25z m-3883 -61 c63 -17 114 -60 142 -118
20 -39 21 -60 21 -303 0 -254 -1 -261 -23 -294 -45 -68 -135 -87 -196 -42 -14
11 -52 57 -84 104 -31 46 -65 90 -74 97 -12 8 -71 12 -209 12 -222 0 -196 11
-284 -120 -78 -116 -134 -143 -216 -104 -82 39 -97 102 -89 373 8 234 17 280
72 336 64 65 80 69 358 76 314 7 515 2 582 -17z m5479 -38 c175 -24 289 -54
389 -104 158 -79 219 -168 193 -286 -12 -59 -74 -130 -143 -167 -39 -21 -61
-49 -37 -49 12 0 74 40 122 78 l44 37 -23 -32 c-35 -47 -125 -108 -190 -128
-18 -6 -23 -4 -19 7 3 7 3 31 -1 53 -6 39 -7 40 -56 46 -38 4 -45 7 -30 13 11
4 43 17 72 28 159 61 221 159 163 253 -54 87 -276 169 -520 193 l-75 7 -3 33
c-2 17 -2 32 1 32 2 0 53 -7 113 -14z m64 -102 c180 -28 348 -94 392 -156 53
-75 13 -150 -113 -208 -120 -55 -190 -70 -331 -70 l-128 0 0 68 c0 66 1 68 34
86 39 21 56 52 56 101 0 49 -17 80 -56 101 -30 17 -34 23 -34 60 l0 42 43 -5
c23 -3 85 -11 137 -19z m-3383 -94 c12 -10 25 -30 29 -42 4 -13 15 -29 25 -36
22 -15 25 -45 7 -59 -7 -6 -46 -11 -86 -12 -65 0 -76 2 -98 24 -33 33 -33 87
1 120 31 32 91 34 122 5z m-5630 -40 l63 -29 0 -182 0 -182 -77 5 c-119 7
-189 52 -232 148 -28 61 -27 132 3 195 24 53 39 70 71 78 38 10 110 -3 172
-33z m4863 -255 l0 -55 -222 -2 -223 -3 -3 -65 c-2 -57 1 -71 22 -103 l25 -37
-452 0 c-417 1 -450 2 -426 16 55 35 71 75 77 194 l5 110 598 0 599 0 0 -55z
m-1619 -48 c8 -7 39 -48 68 -92 29 -44 65 -90 80 -102 l26 -23 -125 0 c-85 0
-130 4 -138 12 -8 8 -12 48 -12 115 l0 103 43 0 c23 0 49 -6 58 -13z m3265
-58 c52 -56 70 -59 338 -59 148 0 256 4 273 11 15 5 44 26 63 45 l36 34 1019
-2 1020 -3 3 -35 c5 -55 -18 -111 -54 -132 -29 -17 -139 -18 -2355 -19 -2132
-1 -2328 0 -2357 15 -38 20 -50 41 -58 100 -12 84 -117 76 1024 76 l1018 0 30
-31z m651 6 c-43 -38 -89 -45 -312 -45 -223 0 -269 7 -312 45 l-28 24 340 0
340 0 -28 -24z"/>
<path d="M10502 7860 c-18 -4 -45 -18 -59 -31 -45 -42 -53 -71 -53 -181 0
-119 14 -159 69 -195 71 -48 175 -20 213 57 14 27 18 60 18 141 0 94 -3 110
-22 139 -42 62 -98 85 -166 70z m109 -43 c48 -32 62 -80 56 -195 -4 -92 -5
-95 -41 -130 -32 -33 -42 -37 -86 -37 -94 0 -136 73 -127 221 5 88 21 125 66
149 39 21 93 18 132 -8z"/>
<path d="M10523 7740 c-3 -10 -13 -22 -23 -25 -44 -14 -45 -106 -2 -136 10 -8
21 -22 25 -31 8 -22 47 -24 47 -3 0 9 11 20 25 25 46 17 22 50 -37 50 -35 0
-38 2 -38 29 0 28 2 30 48 33 52 3 65 25 25 43 -13 5 -23 15 -23 22 0 21 -41
15 -47 -7z"/>
<path d="M7875 7401 c-42 -26 -66 -56 -60 -73 3 -8 19 -25 36 -37 27 -20 31
-21 51 -6 45 31 98 14 98 -31 0 -29 -36 -54 -78 -54 l-33 0 3 -67 3 -68 55 0
c48 0 55 3 60 23 3 12 20 30 40 40 107 53 107 198 1 269 -44 30 -132 32 -176
4z m126 -11 c56 -16 92 -60 97 -122 5 -63 -18 -99 -74 -120 -26 -9 -37 -20
-41 -40 -4 -23 -11 -28 -33 -28 -26 0 -28 3 -32 45 -3 44 -3 44 34 50 42 7 78
44 78 80 0 12 -9 34 -21 49 -23 30 -72 35 -104 12 -16 -12 -22 -12 -42 2 l-24
15 23 24 c19 20 61 39 93 42 6 1 26 -4 46 -9z"/>
<path d="M6432 6020 c-41 -9 -80 -44 -98 -87 -9 -20 -14 -70 -14 -130 0 -113
15 -154 69 -190 71 -48 175 -20 213 57 14 27 18 60 18 141 0 94 -3 110 -22
139 -42 62 -98 85 -166 70z m109 -43 c48 -32 62 -80 56 -195 -4 -92 -5 -95
-41 -130 -32 -33 -42 -37 -86 -37 -94 0 -136 73 -127 221 5 88 21 125 66 149
39 21 93 18 132 -8z"/>
<path d="M6453 5900 c-3 -10 -13 -22 -23 -25 -44 -14 -45 -106 -2 -136 10 -8
21 -22 25 -31 8 -22 47 -24 47 -3 0 9 11 20 25 25 46 17 22 50 -37 50 -35 0
-38 2 -38 29 0 28 2 30 48 33 52 3 65 25 25 43 -13 5 -23 15 -23 22 0 21 -41
15 -47 -7z"/>
<path d="M12239 5221 c-89 -28 -130 -73 -181 -200 -51 -126 -57 -208 -21 -276
79 -151 308 -175 403 -44 33 46 97 201 106 257 10 65 -20 149 -72 199 -62 60
-159 86 -235 64z m157 -45 c75 -35 124 -110 124 -192 0 -39 -61 -205 -95 -256
-36 -54 -120 -93 -186 -85 -106 13 -187 90 -197 186 -7 78 64 266 121 319 58
54 153 65 233 28z"/>
<path d="M12287 5042 c-32 -19 -77 -107 -85 -164 -6 -49 14 -95 49 -113 58
-30 125 -9 152 47 52 111 57 140 32 188 -29 55 -96 74 -148 42z m108 -37 c17
-16 25 -35 25 -57 0 -59 -9 -62 -88 -31 -80 31 -87 45 -46 87 34 34 77 34 109
1z m-27 -136 c26 -10 26 -12 7 -48 -15 -31 -33 -41 -70 -41 -37 0 -55 10 -71
42 -12 23 -13 36 -4 63 l11 34 52 -20 c29 -12 62 -25 75 -30z"/>
<path d="M5190 4230 l0 -810 490 0 490 0 0 810 0 810 -490 0 -490 0 0 -810z
m780 540 l0 -60 -287 2 -288 3 -3 58 -3 57 291 0 290 0 0 -60z m60 -605 l0
-155 -317 2 -318 3 -3 153 -3 152 321 0 320 0 0 -155z"/>
<path d="M6430 4210 l0 -750 453 2 452 3 3 748 2 747 -455 0 -455 0 0 -750z
m188 396 c3 -67 -3 -76 -60 -76 -62 0 -68 6 -68 69 0 32 3 61 7 65 4 4 32 6
63 4 l55 -3 3 -59z m-20 -132 c16 -11 22 -25 22 -54 0 -29 -6 -43 -22 -54 -49
-35 -111 -4 -111 54 0 58 62 89 111 54z m2 -364 c28 -28 27 -84 -2 -104 -76
-54 -157 47 -86 107 27 23 63 22 88 -3z"/>
<path d="M9462 4179 c-44 -13 -106 -78 -120 -127 -15 -48 -16 -214 -2 -264 40
-143 236 -184 333 -69 36 43 47 89 47 200 0 116 -13 161 -61 211 -53 54 -120
71 -197 49z"/>
<path d="M7717 3893 c-4 -3 -7 -21 -7 -39 0 -31 -2 -33 -37 -36 l-38 -3 0 -60
0 -60 37 -3 c35 -3 37 -5 40 -40 l3 -37 67 -3 67 -3 3 38 c3 36 5 38 41 41
l37 3 0 64 0 64 -37 3 c-36 3 -38 5 -41 41 l-3 37 -63 0 c-34 0 -66 -3 -69 -7z
m115 -50 c3 -36 5 -38 41 -41 37 -3 37 -4 37 -48 l0 -44 -40 0 -40 0 0 -40 0
-40 -44 0 c-44 0 -45 0 -48 38 -3 35 -5 37 -40 40 -38 3 -38 4 -38 47 0 43 0
44 38 47 35 3 37 5 40 41 3 37 4 37 47 37 43 0 44 0 47 -37z"/>
</g>
</svg>
